# xmcd
#
# Track frame offsets: 
#        150
#        32865
#        72485
#        108600
#        136720
#        166257
#
# Disc length: 2686 seconds
#
# Revision: 1
# Processed by: cddbd v1.5.2PL0 Copyright (c) Steve Scherf et al.
# Submitted via: ExactAudioCopy v1.3
#
DISCID=4f0a7c06
DTITLE=George Adams - Old Feeling
DYEAR=1991
DGENRE=Jazz
TTITLE0=That Old Feeling
TTITLE1=The Wanderer
TTITLE2=As Time Goes By
TTITLE3=Melody For Monet
TTITLE4=Just The Way You Are
TTITLE5=The Cry
EXTD=YEAR: 1991
EXTT0=
EXTT1=
EXTT2=
EXTT3=
EXTT4=
EXTT5=
PLAYORDER=
